<?xml version="1.0" standalone="no"?>
<!DOCTYPE svg PUBLIC "-//W3C//DTD SVG 20010904//EN"
 "http://www.w3.org/TR/2001/REC-SVG-20010904/DTD/svg10.dtd">
<svg version="1.0" xmlns="http://www.w3.org/2000/svg"
 width="16.000000pt" height="16.000000pt" viewBox="0 0 16.000000 16.000000"
 preserveAspectRatio="xMidYMid meet">
<metadata>
Created by potrace 1.11, written by Peter Selinger 2001-2013
</metadata>
<g transform="translate(0.000000,16.000000) scale(0.006154,-0.006154)"
fill="#000000" stroke="none">
<path d="M1248 2595 c-2 -2 -32 -6 -68 -9 -57 -5 -90 -10 -125 -20 -5 -1 -38
-9 -72 -16 -35 -7 -63 -17 -63 -22 0 -5 -4 -6 -10 -3 -5 3 -16 3 -22 -2 -7 -4
-17 -8 -23 -9 -19 -4 -110 -39 -115 -45 -3 -3 -23 -13 -45 -23 -74 -35 -143
-83 -276 -194 -25 -20 -136 -146 -164 -186 -11 -16 -24 -34 -30 -40 -9 -11
-17 -24 -47 -78 -7 -13 -15 -25 -19 -28 -6 -6 -42 -83 -42 -90 0 -3 -6 -14
-13 -25 -8 -11 -14 -27 -14 -37 0 -10 -4 -18 -10 -18 -5 0 -9 -3 -8 -7 1 -7
-26 -107 -39 -143 -6 -17 -14 -72 -16 -112 -1 -16 -5 -28 -8 -28 -8 0 -9 -302
-1 -315 4 -5 7 -21 8 -35 4 -68 33 -191 59 -250 2 -3 6 -15 10 -28 63 -195
291 -477 489 -607 83 -54 238 -133 275 -140 9 -2 16 -4 16 -5 0 -1 7 -3 15 -6
8 -2 40 -11 70 -20 30 -9 66 -17 80 -19 14 -2 25 -4 25 -5 0 -7 112 -14 235
-15 134 0 195 5 260 19 82 18 129 31 158 43 17 7 32 11 32 9 0 -12 248 120
270 144 3 3 25 19 49 35 59 40 205 185 262 260 40 53 139 208 139 219 0 2 7
20 15 40 8 20 14 37 13 38 -1 2 5 14 12 28 8 14 15 30 17 35 1 6 9 37 19 70
34 124 38 162 38 345 0 91 -3 181 -6 200 -11 60 -19 94 -30 135 -7 22 -12 43
-14 48 -1 4 -3 9 -4 12 -1 3 -3 8 -4 13 -15 64 -92 217 -159 315 -54 80 -188
227 -261 286 -96 78 -258 167 -386 211 -80 28 -185 53 -227 54 -13 0 -23 2
-23 6 0 3 -24 6 -53 8 -113 7 -167 9 -169 7z m-8 -417 c0 -161 -4 -299 -9
-307 -8 -12 -22 -12 -92 -1 -128 19 -244 56 -354 110 -125 62 -260 158 -260
184 0 45 244 195 400 247 90 29 218 57 273 58 l42 1 0 -292z m230 282 c206
-32 364 -99 545 -231 84 -61 84 -61 23 -110 -186 -148 -412 -240 -613 -251
l-60 -3 -3 289 c-1 159 0 296 2 303 6 16 21 16 106 3z m-955 -458 c198 -147
393 -222 665 -260 l55 -7 3 -188 3 -187 -555 0 -556 0 0 47 c0 115 82 367 162
499 36 61 115 164 124 164 3 0 48 -31 99 -68z m1713 21 c84 -101 148 -224 198
-381 23 -73 54 -223 54 -263 0 -18 -20 -19 -560 -19 l-560 0 0 184 c0 102 4
187 8 190 4 2 35 7 67 11 155 17 307 61 440 127 81 40 194 111 230 145 26 24
68 53 76 53 4 0 25 -21 47 -47z m-1986 -795 c9 -7 46 -66 82 -131 l67 -118
-55 -97 c-31 -53 -60 -104 -65 -112 -14 -20 -72 107 -99 215 -27 107 -45 222
-38 240 7 19 85 20 108 3z m284 -3 c2 -6 -12 -34 -30 -64 l-34 -54 -31 60
c-16 33 -27 63 -24 67 10 9 116 2 119 -9z m322 -67 c28 -46 60 -104 73 -130
l23 -48 -28 -52 c-50 -96 -170 -298 -175 -298 -6 0 -180 301 -194 334 -7 19
36 108 109 224 l34 52 54 0 55 0 49 -82z m532 39 c14 -20 47 -79 74 -130 l50
-94 -95 -164 c-52 -90 -100 -164 -108 -164 -13 0 -200 309 -201 332 0 12 98
186 132 236 18 25 25 28 71 25 47 -3 53 -6 77 -41z m554 -1 c13 -17 46 -73 75
-123 l52 -93 -82 -142 c-97 -171 -119 -202 -130 -191 -17 17 -189 319 -189
332 0 13 85 168 122 223 32 47 116 44 152 -6z m533 -28 c-4 -40 -18 -115 -32
-166 -26 -99 -82 -242 -94 -242 -4 0 -35 49 -69 109 l-62 109 33 59 c19 32 53
91 76 131 l42 72 56 0 56 0 -6 -72z m-1393 30 c-35 -68 -45 -79 -61 -66 -13
11 -53 80 -53 93 0 3 29 5 65 5 l66 0 -17 -32z m566 23 c0 -13 -51 -101 -58
-101 -7 0 -18 15 -55 78 l-19 32 66 0 c36 0 66 -4 66 -9z m560 4 c0 -10 -55
-95 -62 -95 -11 0 -68 87 -61 94 7 7 123 8 123 1z m-1617 -570 l89 -155 -36
-65 c-21 -36 -43 -65 -51 -65 -26 0 -245 228 -245 256 0 11 73 150 107 203
l16 24 16 -22 c9 -12 56 -91 104 -176z m536 29 c52 -85 96 -166 98 -178 3 -15
-14 -56 -50 -117 -89 -154 -132 -222 -143 -226 -10 -3 -84 115 -168 269 l-37
68 96 170 c54 93 100 170 104 170 4 0 49 -70 100 -156z m571 -24 c44 -77 83
-145 85 -153 8 -19 -178 -347 -196 -347 -14 0 -199 311 -199 335 0 5 43 86 97
179 113 199 88 200 213 -14z m468 158 c6 -7 31 -53 56 -101 47 -89 47 -89 29
-117 -38 -59 -210 -230 -232 -230 -4 0 -23 27 -43 61 l-36 60 45 82 c140 254
156 275 181 245z m-1369 -525 c17 -31 30 -58 28 -59 -1 -1 -18 5 -38 14 -70
33 -85 58 -53 93 21 24 27 20 63 -48z m1094 35 c9 -18 13 -36 10 -41 -6 -11
-106 -58 -110 -53 -6 6 67 126 76 126 5 0 15 -14 24 -32z m-550 -15 c46 -74
87 -152 87 -167 0 -18 -15 -19 -149 -18 -45 0 -85 3 -88 6 -13 12 98 216 117
216 5 0 20 -17 33 -37z"/>
</g>
</svg>
